<?xml version="1.0" encoding="UTF-8"?>
<svg width="50px" height="50px" viewBox="0 0 50 50" version="1.1" xmlns="http://www.w3.org/2000/svg" xmlns:xlink="http://www.w3.org/1999/xlink">
    <title>Path</title>
    <g id="Page-1" stroke="none" stroke-width="1" fill="none" fill-rule="evenodd">
        <g id="noun_add_2349166" transform="translate(-25.000000, 0.000000)" fill="#000000" fill-rule="nonzero">
            <path d="M72,22 L53,22 L53,3 C53,1.3 51.7,0 50,0 C48.3,0 47,1.3 47,3 L47,22 L28,22 C26.3,22 25,23.3 25,25 C25,26.7 26.3,28 28,28 L47,28 L47,47 C47,48.7 48.3,50 50,50 C51.7,50 53,48.7 53,47 L53,28 L72,28 C73.7,28 75,26.7 75,25 C75,23.3 73.7,22 72,22 Z" id="Path"></path>
        </g>
    </g>
</svg>