<?xml version="1.0" encoding="UTF-8"?>
<svg width="100px" height="84px" viewBox="0 0 100 84" version="1.1" xmlns="http://www.w3.org/2000/svg" xmlns:xlink="http://www.w3.org/1999/xlink">
    <title>noun_Arrow_3134192</title>
    <g id="Page-1" stroke="none" stroke-width="1" fill="none" fill-rule="evenodd">
        <g id="noun_Arrow_3134192" fill="#000000" fill-rule="nonzero">
            <path d="M97.64,36.1 L64.72,3.18 C62.7031902,1.05790265 59.6942825,0.196257366 56.8599053,0.929145466 C54.0255281,1.66203357 51.8114194,3.87420009 51.0760442,6.70793302 C50.340669,9.54166595 51.1996734,12.5513287 53.32,14.57 L72.78,34 L8.06,34 C3.60858492,34 0,37.6085849 0,42.06 C0,46.5114151 3.60858492,50.12 8.06,50.12 L72.6,50.12 L53.32,69.43 C50.307495,72.5997728 50.372097,77.5935024 53.4655924,80.6842842 C56.5590877,83.775066 61.5528722,83.8352855 64.72,80.82 L97.64,47.9 C99.1570902,46.3919328 100.007032,44.3391073 100,42.2 C100.005258,42.133437 100.005258,42.066563 100,42 C100.003943,41.9334174 100.003943,41.8665826 100,41.8 C99.9992844,39.6624273 99.1505254,37.6124585 97.64,36.1 Z" id="Path"></path>
        </g>
    </g>
</svg>