<?xml version="1.0" encoding="UTF-8"?>
<svg width="301px" height="304px" viewBox="0 0 301 304" version="1.1" xmlns="http://www.w3.org/2000/svg" xmlns:xlink="http://www.w3.org/1999/xlink">
    <title>noun_edit_2149420</title>
    <g id="Page-1" stroke="none" stroke-width="1" fill="none" fill-rule="evenodd">
        <g id="noun_edit_2149420" fill="#000000" fill-rule="nonzero">
            <g id="Group">
                <path d="M259.2,14.8 C250.3,5.8 238.5,0.8 225.9,0.7 C213.3,0.7 201.4,5.5 192.5,14.5 L39.7,167.3 C34,173 29.9,180.1 27.7,187.8 L1.1,282 C-0.6,288 1.1,294.4 5.6,298.8 C8.8,301.9 13.1,303.6 17.5,303.6 C19.2,303.6 20.9,303.4 22.5,302.8 L114.1,274.6 C121.4,272.4 128.1,268.3 133.5,262.9 L133.5,262.9 L286.9,109.5 C305.1,91.3 305.2,61.7 287.2,43.3 L259.2,14.8 Z M183.2,71.9 L229.4,119.1 L218.1,130.4 L171.9,83.2 L183.2,71.9 Z M109.4,239 C107.9,240.5 106.1,241.6 104,242.2 L42.2,261.2 L60.3,197 C60.9,194.9 62.1,192.9 63.6,191.3 L147.7,107.2 L193.9,154.4 L109.4,239 Z M262.9,85.5 L253.4,95 L207.2,47.8 L216.4,38.7 C218.9,36.2 222.1,35 225.6,35 C225.6,35 225.6,35 225.7,35 C229.2,35 232.5,36.3 234.9,38.8 L262.9,67.3 C267.9,72.3 267.9,80.5 262.9,85.5 Z" id="Shape"></path>
            </g>
        </g>
    </g>
</svg>