<?xml version="1.0" encoding="UTF-8"?>
<svg width="84px" height="90px" viewBox="0 0 84 90" version="1.1" xmlns="http://www.w3.org/2000/svg" xmlns:xlink="http://www.w3.org/1999/xlink">
    <title>noun_Government_40293</title>
    <g id="Page-1" stroke="none" stroke-width="1" fill="none" fill-rule="evenodd">
        <g id="noun_Government_40293" fill="#000000" fill-rule="nonzero">
            <g id="Group">
                <rect id="Rectangle" x="0" y="86" width="84" height="4"></rect>
                <path d="M83,48 L70.408,48 C69.21,34 57.906,22.79 43.914,21.813 C44.032,21.545 44,21.032 44,20.721 L44,14.444 C50,12.4 55,19.648 60,15.42 C60,11.321 60,7.223 60,3.124 C55,7.353 49.4,0.101 44.005,2.149 C43.988,0.96 43.197,0 42.004,0 C40.801,0 40,0.976 40,2.179 L40,20.721 C40,21.031 39.987,21.543 40.104,21.81 C26.095,22.769 14.791,34 13.592,48 L1,48 L1,83 L83,83 L83,48 Z M19,74.751 C19,76.597 17.345,78.093 15.5,78.093 C13.654,78.093 12,76.596 12,74.751 L12,58.526 C12,56.68 13.655,55.184 15.5,55.184 C17.345,55.184 19,56.681 19,58.526 L19,74.751 Z M37,74.751 C37,76.597 35.345,78.093 33.5,78.093 C31.654,78.093 30,76.596 30,74.751 L30,58.526 C30,56.68 31.655,55.184 33.5,55.184 C35.345,55.184 37,56.681 37,58.526 L37,74.751 Z M54,74.751 C54,76.597 52.345,78.093 50.5,78.093 C48.655,78.093 47,76.596 47,74.751 L47,58.526 C47,56.68 48.655,55.184 50.5,55.184 C52.346,55.184 54,56.681 54,58.526 L54,74.751 Z M72,74.751 C72,76.597 70.345,78.093 68.5,78.093 C66.655,78.093 65,76.596 65,74.751 L65,58.526 C65,56.68 66.655,55.184 68.5,55.184 C70.346,55.184 72,56.681 72,58.526 L72,74.751 Z" id="Shape"></path>
            </g>
        </g>
    </g>
</svg>