<?xml version="1.0" encoding="UTF-8"?>
<svg width="62px" height="63px" viewBox="0 0 62 63" version="1.1" xmlns="http://www.w3.org/2000/svg" xmlns:xlink="http://www.w3.org/1999/xlink">
    <title>noun_photos_3148695</title>
    <g id="Page-1" stroke="none" stroke-width="1" fill="none" fill-rule="evenodd">
        <g id="noun_photos_3148695" fill="#000000" fill-rule="nonzero">
            <g id="Group">
                <path d="M53.1,51.8 L18.1,62.6 C16.2,63.2 14.2,62.1 13.6,60.2 L1.1,19.8 C0.5,17.9 1.6,15.9 3.5,15.3 L12.4,12.6 L12.4,17.3 L5.7,19.4 L12.4,41.3 L12.4,46.2 C12.4,47.9 13.1,49.4 14.4,50.5 C15.4,51.3 16.7,51.8 18,51.8 L53.1,51.8 Z" id="Path"></path>
                <path d="M58.4,0.3 L18,0.3 C16,0.3 14.4,1.9 14.4,3.9 L14.4,46.2 C14.4,47.3 14.9,48.3 15.7,49 C16.3,49.5 17.1,49.8 18,49.8 L58.4,49.8 C58.6,49.8 58.9,49.8 59.1,49.7 C60.7,49.4 62,47.9 62,46.2 L62,3.9 C62,1.9 60.4,0.3 58.4,0.3 Z M57.5,33 L48.5,20.1 L35.7,38.3 L33.3,38.3 L41.3,26.9 L32.3,14 L18.9,33 L18.9,4.8 L57.5,4.8 L57.5,33 Z" id="Shape"></path>
                <circle id="Oval" cx="43.6" cy="13.5" r="4.4"></circle>
            </g>
        </g>
    </g>
</svg>