<?xml version="1.0" encoding="UTF-8"?>
<svg width="9px" height="7px" viewBox="0 0 9 7" version="1.1" xmlns="http://www.w3.org/2000/svg" xmlns:xlink="http://www.w3.org/1999/xlink">
    <title>noun_members_3265979</title>
    <g id="Page-1" stroke="none" stroke-width="1" fill="none" fill-rule="evenodd">
        <g id="noun_members_3265979" fill="#000000" fill-rule="nonzero">
            <path d="M1.7851646,0.3815859 C1.157274,0.3815859 0.64259852,0.8962609 0.64259852,1.5241519 C0.64259852,2.1520399 1.157274,2.6667179 1.7851646,2.6667179 C2.1002913,2.6667179 2.3865599,2.5367649 2.5939006,2.3282359 C2.5726256,2.2227549 2.5608276,2.1140879 2.5608276,2.0026749 C2.5608276,1.6650499 2.6638193,1.3499849 2.8388464,1.0859359 C2.6658407,0.6736829 2.257967,0.3815859 1.7851646,0.3815859 Z M6.6799562,0.3821019 C6.2073231,0.3821019 5.7993858,0.6739239 5.6262716,1.0859359 C5.8012988,1.3499849 5.9042931,1.6650499 5.9042905,2.0026749 C5.9042905,2.1142259 5.8925245,2.2231229 5.8712175,2.3287519 C6.0785608,2.5372809 6.3648268,2.6672339 6.6799561,2.6672339 C7.3078388,2.6672339 7.8225195,2.1525529 7.8225195,1.5246679 C7.8225195,0.8967819 7.3078388,0.3821019 6.6799562,0.3821019 Z M4.2325604,0.8601079 C3.6046698,0.8601079 3.0899943,1.3747869 3.0899943,2.0026749 C3.0899943,2.6305649 3.6046698,3.1452409 4.2325604,3.1452409 C4.8604484,3.1452409 5.3751238,2.6305649 5.3751238,2.0026749 C5.3751238,1.3747869 4.8604484,0.8601079 4.2325604,0.8601079 L4.2325604,0.8601079 Z M1.7851646,2.8641209 C0.79986421,2.8641209 0.00025701582,3.6659009 0.00025701582,4.6510929 L0.00025701582,5.3425229 C-0.000298901187,5.48864378 0.117689663,5.60755751 0.26381044,5.6081409 L1.9184881,5.6081409 L1.9184881,5.1296159 C1.9184881,4.3538999 2.329013,3.6942349 2.9230793,3.2770159 C2.6131966,3.0206879 2.2176313,2.8641209 1.7851646,2.8641209 Z M6.6799562,2.8651209 C6.2476588,2.8651209 5.8528264,3.0215059 5.5435893,3.2774979 C6.1379123,3.6945639 6.5486964,4.3536829 6.5486964,5.1295819 L6.5486964,5.6075879 L8.2018263,5.6075879 C8.34794544,5.6075879 8.4664096,5.48912404 8.4664096,5.3430049 L8.4664096,4.6520909 C8.4664096,3.6669009 7.6652539,2.8651209 6.6799562,2.8651209 L6.6799562,2.8651209 Z M4.2325604,3.3426119 C3.24726,3.3426119 2.4476548,4.1443819 2.4476548,5.1295819 L2.4476548,5.8210119 C2.44795216,5.96652767 2.56569129,6.08449714 2.7112062,6.08508081 L5.7539145,6.08508081 C5.82417345,6.08534599 5.89165419,6.05765999 5.94148013,6.00812448 C5.99130607,5.95858896 6.01938607,5.89127121 6.0195297,5.8210119 L6.0195297,5.1295819 C6.0195297,4.1443819 5.2178581,3.3426119 4.2325604,3.3426119 L4.2325604,3.3426119 Z" id="Shape"></path>
        </g>
    </g>
</svg>