<?xml version="1.0" encoding="UTF-8"?>
<svg width="54px" height="44px" viewBox="0 0 54 44" version="1.1" xmlns="http://www.w3.org/2000/svg" xmlns:xlink="http://www.w3.org/1999/xlink">
    <title>noun_news_1401378</title>
    <g id="Page-1" stroke="none" stroke-width="1" fill="none" fill-rule="evenodd">
        <g id="noun_news_1401378" fill="#000000" fill-rule="nonzero">
            <g id="Group">
                <path d="M37.5694275,36.7588806 L37.5694275,21.5289001 C37.5694275,21.5256042 37.5704041,21.5225524 37.5704041,21.5192565 L37.5704041,1.0210876 C37.5704041,0.4688415 37.1231385,0.0210876 36.5704041,0.0210876 L1.0010681,0.0210876 C0.4483337,0.0210876 0.0010681,0.4688415 0.0010681,1.0210876 L0.0010681,36.7588806 C0.0010681,40.7373962 3.2383728,43.9742126 7.2168884,43.9742126 L41.0657654,43.9742126 C38.9392395,42.2836609 37.5694275,39.6803284 37.5694275,36.7588806 Z M5.2489319,6.2688904 C5.2489319,5.7088928 5.6889343,5.2688904 6.2489319,5.2688904 L17.9389343,5.2688904 C18.4889831,5.2688904 18.9389343,5.7088928 18.9389343,6.2688904 L18.9389343,17.9588928 C18.9389343,18.5089416 18.4889831,18.9588928 17.9389343,18.9588928 L6.2489319,18.9588928 C5.6889343,18.9588928 5.2489319,18.5089416 5.2489319,17.9588928 L5.2489319,6.2688904 Z M31.9815369,37.9561462 L6.2452087,37.9561462 C5.6924743,37.9561462 5.2452087,37.5083923 5.2452087,36.9561462 C5.2452087,36.4039001 5.6924743,35.9561462 6.2452087,35.9561462 L31.9815368,35.9561462 C32.5342712,35.9561462 32.9815368,36.4039001 32.9815368,36.9561462 C32.9815368,37.5083923 32.5342712,37.9561462 31.9815369,37.9561462 Z M31.9815369,31.1436462 L6.2452087,31.1436462 C5.6924743,31.1436462 5.2452087,30.6958923 5.2452087,30.1436462 C5.2452087,29.5914001 5.6924743,29.1436462 6.2452087,29.1436462 L31.9815368,29.1436462 C32.5342712,29.1436462 32.9815368,29.5914001 32.9815368,30.1436462 C32.9815368,30.6958923 32.5342712,31.1436462 31.9815369,31.1436462 Z M31.9815369,24.3311462 L6.2452087,24.3311462 C5.6924743,24.3311462 5.2452087,23.8833923 5.2452087,23.3311462 C5.2452087,22.7789001 5.6924743,22.3311462 6.2452087,22.3311462 L31.9815368,22.3311462 C32.5342712,22.3311462 32.9815368,22.7789001 32.9815368,23.3311462 C32.9815368,23.8833923 32.5342712,24.3311462 31.9815369,24.3311462 Z M32.5645447,16.4605408 L22.6592713,16.4605408 C22.1065369,16.4605408 21.6592713,16.0127869 21.6592713,15.4605408 C21.6592713,14.9082947 22.1065369,14.4605408 22.6592713,14.4605408 L32.5645447,14.4605408 C33.1172791,14.4605408 33.5645447,14.9082947 33.5645447,15.4605408 C33.5645447,16.0127869 33.1172791,16.4605408 32.5645447,16.4605408 Z M32.5645447,9.7598572 L22.6592713,9.7598572 C22.1065369,9.7598572 21.6592713,9.3121033 21.6592713,8.7598572 C21.6592713,8.2076111 22.1065369,7.7598572 22.6592713,7.7598572 L32.5645447,7.7598572 C33.1172791,7.7598572 33.5645447,8.2076111 33.5645447,8.7598572 C33.5645447,9.3121033 33.1172791,9.7598572 32.5645447,9.7598572 Z" id="Shape"></path>
                <path d="M52.9989319,20.5289001 L40.5689392,20.5289001 C40.0189514,20.5289001 39.5689392,20.9689025 39.5689392,21.5289001 L39.5689392,36.7589416 C39.5689392,40.7389221 42.8089294,43.9789123 46.7889709,43.9789123 C50.7689514,43.9789123 53.9989318,40.7389221 53.9989318,36.7589416 L53.9989318,21.5289001 C53.9989318,20.9689026 53.5489807,20.5289001 52.9989319,20.5289001 Z" id="Path"></path>
            </g>
        </g>
    </g>
</svg>