<?xml version="1.0" encoding="UTF-8"?>
<svg width="43px" height="43px" viewBox="0 0 43 43" version="1.1" xmlns="http://www.w3.org/2000/svg" xmlns:xlink="http://www.w3.org/1999/xlink">
    <title>noun_Social_777910</title>
    <g id="Page-1" stroke="none" stroke-width="1" fill="none" fill-rule="evenodd">
        <g id="noun_Social_777910" fill="#000000" fill-rule="nonzero">
            <g id="Group">
                <rect id="Rectangle" x="19.39" y="16.73" width="3.74" height="3.74"></rect>
                <path d="M21.26,0 C9.52,0 0,8.27 0,18.48 C0,27.48 7.4,34.97 17.19,36.62 L20.25,42.08 C20.4621777,42.4293377 20.8412749,42.6426286 21.25,42.6426286 C21.6587251,42.6426286 22.0378223,42.4293377 22.25,42.08 L25.31,36.61 C35.13,35 42.53,27.48 42.53,18.48 C42.53,8.27 33,0 21.26,0 Z M28,20.47 C28.6599803,20.47 29.195,21.0050197 29.195,21.665 C29.195,22.3249803 28.6599803,22.86 28,22.86 L25.53,22.86 L25.53,26.94 C25.53,27.5999803 24.9949803,28.135 24.335,28.135 C23.6750197,28.135 23.14,27.5999803 23.14,26.94 L23.14,22.86 L19.39,22.86 L19.39,26.94 C19.39,27.5999803 18.8549803,28.135 18.195,28.135 C17.5350197,28.135 17,27.5999803 17,26.94 L17,22.86 L14.56,22.86 C13.9000197,22.86 13.365,22.3249803 13.365,21.665 C13.365,21.0050197 13.9000197,20.47 14.56,20.47 L17,20.47 L17,16.73 L14.56,16.73 C13.9000197,16.73 13.365,16.1949803 13.365,15.535 C13.365,14.8750197 13.9000197,14.34 14.56,14.34 L17,14.34 L17,10.26 C17,9.60001972 17.5350197,9.065 18.195,9.065 C18.8549803,9.065 19.39,9.60001972 19.39,10.26 L19.39,14.34 L23.13,14.34 L23.13,10.26 C23.13,9.60001972 23.6650197,9.065 24.325,9.065 C24.9849803,9.065 25.52,9.60001972 25.52,10.26 L25.52,14.34 L28,14.34 C28.6599803,14.34 29.195,14.8750197 29.195,15.535 C29.195,16.1949803 28.6599803,16.73 28,16.73 L25.53,16.73 L25.53,20.47 L28,20.47 Z" id="Shape"></path>
            </g>
        </g>
    </g>
</svg>