<?xml version="1.0" encoding="UTF-8"?>
<svg width="76px" height="78px" viewBox="0 0 76 78" version="1.1" xmlns="http://www.w3.org/2000/svg" xmlns:xlink="http://www.w3.org/1999/xlink">
    <title>noun_Trash_1533154</title>
    <g id="Page-1" stroke="none" stroke-width="1" fill="none" fill-rule="evenodd">
        <g id="noun_Trash_1533154" fill="#000000" fill-rule="nonzero">
            <g id="Group">
                <path d="M73.5,11 L50.9,11 L50.9,7.2 C50.9,5.34348457 50.1625021,3.56300718 48.8497475,2.25025253 C47.5369928,0.937497883 45.7565154,0.2 43.9,0.2 L32.1,0.2 C28.2340068,0.2 25.1,3.33400675 25.1,7.2 L25.1,11 L2.5,11 C1.3954305,11 0.5,11.8954305 0.5,13 C0.470807546,13.5388532 0.67212958,14.0646995 1.05371504,14.446285 C1.4353005,14.8278704 1.96114684,15.0291925 2.5,15 L8.8,15 L8.8,62.8 C8.8,71.0842712 15.5157288,77.8 23.8,77.8 L52.3,77.8 C60.5842712,77.8 67.3,71.0842712 67.3,62.8 L67.3,15 L73.5,15 C74.0388532,15.0291925 74.5646995,14.8278704 74.946285,14.446285 C75.3278704,14.0646995 75.5291925,13.5388532 75.5,13 C75.5,11.8954305 74.6045695,11 73.5,11 Z M29.1,7.2 C29.1,5.54314575 30.4431458,4.2 32.1,4.2 L43.9,4.2 C45.5568542,4.2 46.9,5.54314575 46.9,7.2 L46.9,11 L29.1,11 L29.1,7.2 Z M63.3,62.8 C63.3,68.8751322 58.3751322,73.8 52.3,73.8 L23.8,73.8 C17.7248678,73.8 12.8,68.8751322 12.8,62.8 L12.8,15 L63.3,15 L63.3,62.8 Z" id="Shape"></path>
                <path d="M24.3,62.3 C25.4045695,62.3 26.3,61.4045695 26.3,60.3 L26.3,26.3 C26.3,25.1954305 25.4045695,24.3 24.3,24.3 C23.1954305,24.3 22.3,25.1954305 22.3,26.3 L22.3,60.3 C22.3,61.4045695 23.1954305,62.3 24.3,62.3 Z" id="Path"></path>
                <path d="M38,62.3 C39.1045695,62.3 40,61.4045695 40,60.3 L40,26.3 C40,25.1954305 39.1045695,24.3 38,24.3 C36.8954305,24.3 36,25.1954305 36,26.3 L36,60.3 C36,61.4045695 36.8954305,62.3 38,62.3 Z" id="Path"></path>
                <path d="M51.7,62.3 C52.8045695,62.3 53.7,61.4045695 53.7,60.3 L53.7,26.3 C53.7,25.1954305 52.8045695,24.3 51.7,24.3 C50.5954305,24.3 49.7,25.1954305 49.7,26.3 L49.7,60.3 C49.7,61.4045695 50.5954305,62.3 51.7,62.3 Z" id="Path"></path>
            </g>
        </g>
    </g>
</svg>